# xmcd
#
# Track frame offsets: 
#        150
#        17397
#        37258
#        49722
#        59303
#        87271
#        109465
#        122717
#        134068
#
# Disc length: 2459 seconds
#
# Revision: 2
# Processed by: cddbd v1.5.2PL0 Copyright (c) Steve Scherf et al.
# Submitted via: ExactAudioCopy v1.0b3
#
DISCID=7e099909
DTITLE=Skid Row - Skid
DYEAR=1970
DGENRE=Blues
TTITLE0=Mad Dog Woman
TTITLE1=Virgo's Daughter
TTITLE2=Heading Home Again
TTITLE3=An Awful Lot Of Woman
TTITLE4=Unco-Up Showband Blues
TTITLE5=For Those Who Do
TTITLE6=After I'm Gone
TTITLE7=The Man Who Never Was
TTITLE8=Felicity
EXTD=
EXTT0=
EXTT1=
EXTT2=
EXTT3=
EXTT4=
EXTT5=
EXTT6=
EXTT7=
EXTT8=
PLAYORDER=
